HIERARCHY
ROOT Root
{
  OFFSET 0.0 0.0 0.0
  CHANNELS 6 Xposition Yposition Zposition Zrotation Yrotation Xrotation
  JOINT Hips
  {
    OFFSET 0.0 100.0 0.0
    CHANNELS 6 Xposition Yposition Zposition Zrotation Yrotation Xrotation
    JOINT Spine1
    {
      OFFSET -0.013727 5.003763 -0.053727
      CHANNELS 3 Zrotation Yrotation Xrotation
      JOINT Spine2
      {
        OFFSET -0.0 7.125301 -0.029825
        CHANNELS 3 Zrotation Yrotation Xrotation
        JOINT Chest
        {
          OFFSET -1e-06 7.550063 -0.815971
          CHANNELS 3 Zrotation Yrotation Xrotation
          JOINT Neck1
          {
            OFFSET -0.181677 26.311295 -0.553348
            CHANNELS 3 Zrotation Yrotation Xrotation
            JOINT Neck2
            {
              OFFSET -3e-06 7.709397 2.302585
              CHANNELS 3 Zrotation Yrotation Xrotation
              JOINT Head
              {
                OFFSET -5e-06 6.128916 1.953709
                CHANNELS 3 Zrotation Yrotation Xrotation
                JOINT HeadEnd
                {
                  OFFSET 0.003598 16.065403 -1.835379
                  CHANNELS 3 Zrotation Yrotation Xrotation
                }
                JOINT Jaw
                {
                  OFFSET 0.002637 0.475592 3.094941
                  CHANNELS 3 Zrotation Yrotation Xrotation
                }
                JOINT LeftEye
                {
                  OFFSET 3.206381 5.380205 7.586883
                  CHANNELS 3 Zrotation Yrotation Xrotation
                }
                JOINT RightEye
                {
                  OFFSET -3.22244 5.361869 7.558234
                  CHANNELS 3 Zrotation Yrotation Xrotation
                }
              }
            }
          }
          JOINT LeftShoulder
          {
            OFFSET 1.621652 23.237164 5.113413
            CHANNELS 3 Zrotation Yrotation Xrotation
            JOINT LeftArm
            {
              OFFSET 14.919846 2e-06 -5.502326
              CHANNELS 3 Zrotation Yrotation Xrotation
              JOINT LeftForeArm
              {
                OFFSET 28.739307 0.0 -0.002588
                CHANNELS 3 Zrotation Yrotation Xrotation
                JOINT LeftHand
                {
                  OFFSET 27.093981 -1e-06 0.002609
                  CHANNELS 3 Zrotation Yrotation Xrotation
                  JOINT LeftHandThumb1
                  {
                    OFFSET 2.276482 -1.392045 3.191413
                    CHANNELS 3 Zrotation Yrotation Xrotation
                    JOINT LeftHandThumb2
                    {
                      OFFSET 4.012836 -1.828127 1.641654
                      CHANNELS 3 Zrotation Yrotation Xrotation
                      JOINT LeftHandThumb3
                      {
                        OFFSET 2.798515 0.0 -3e-06
                        CHANNELS 3 Zrotation Yrotation Xrotation
                        JOINT LeftHandThumbEnd
                        {
                          OFFSET 3.180793 -4e-06 4e-06
                          CHANNELS 3 Zrotation Yrotation Xrotation
                        }
                      }
                    }
                  }
                  JOINT LeftHandIndex1
                  {
                    OFFSET 3.247555 -0.531998 2.296169
                    CHANNELS 3 Zrotation Yrotation Xrotation
                    JOINT LeftHandIndex2
                    {
                      OFFSET 6.364578 0.01206 0.1786
                      CHANNELS 3 Zrotation Yrotation Xrotation
                      JOINT LeftHandIndex3
                      {
                        OFFSET 3.662364 0.0 0.0
                        CHANNELS 3 Zrotation Yrotation Xrotation
                        JOINT LeftHandIndex4
                        {
                          OFFSET 2.329242 4e-06 4e-06
                          CHANNELS 3 Zrotation Yrotation Xrotation
                          JOINT LeftHandIndexEnd
                          {
                            OFFSET 2.759615 -0.180537 -0.113024
                            CHANNELS 3 Zrotation Yrotation Xrotation
                          }
                        }
                      }
                    }
                  }
                  JOINT LeftHandMiddle1
                  {
                    OFFSET 3.163495 0.240981 1.000332
                    CHANNELS 3 Zrotation Yrotation Xrotation
                    JOINT LeftHandMiddle2
                    {
                      OFFSET 6.19078 -0.259278 -1.002548
                      CHANNELS 3 Zrotation Yrotation Xrotation
                      JOINT LeftHandMiddle3
                      {
                        OFFSET 4.35652 -4e-06 -1e-06
                        CHANNELS 3 Zrotation Yrotation Xrotation
                        JOINT LeftHandMiddle4
                        {
                          OFFSET 2.996877 -8e-06 0.0
                          CHANNELS 3 Zrotation Yrotation Xrotation
                          JOINT LeftHandMiddleEnd
                          {
                            OFFSET 2.304287 -0.294569 -0.031741
                            CHANNELS 3 Zrotation Yrotation Xrotation
                          }
                        }
                      }
                    }
                  }
                  JOINT LeftHandRing1
                  {
                    OFFSET 2.882643 -0.053652 -0.322543
                    CHANNELS 3 Zrotation Yrotation Xrotation
                    JOINT LeftHandRing2
                    {
                      OFFSET 5.854541 -0.486202 -1.373841
                      CHANNELS 3 Zrotation Yrotation Xrotation
                      JOINT LeftHandRing3
                      {
                        OFFSET 4.350578 0.0 3e-06
                        CHANNELS 3 Zrotation Yrotation Xrotation
                        JOINT LeftHandRing4
                        {
                          OFFSET 2.651321 7e-06 2e-06
                          CHANNELS 3 Zrotation Yrotation Xrotation
                          JOINT LeftHandRingEnd
                          {
                            OFFSET 1.936105 0.077687 -7.1e-05
                            CHANNELS 3 Zrotation Yrotation Xrotation
                          }
                        }
                      }
                    }
                  }
                  JOINT LeftHandPinky1
                  {
                    OFFSET 2.8655 -0.310005 -1.600378
                    CHANNELS 3 Zrotation Yrotation Xrotation
                    JOINT LeftHandPinky2
                    {
                      OFFSET 5.087849 -1.331141 -1.77123
                      CHANNELS 3 Zrotation Yrotation Xrotation
                      JOINT LeftHandPinky3
                      {
                        OFFSET 3.070974 4e-06 0.0
                        CHANNELS 3 Zrotation Yrotation Xrotation
                        JOINT LeftHandPinky4
                        {
                          OFFSET 1.549672 0.0 1e-06
                          CHANNELS 3 Zrotation Yrotation Xrotation
                          JOINT LeftHandPinkyEnd
                          {
                            OFFSET 1.944893 -0.157802 0.057219
                            CHANNELS 3 Zrotation Yrotation Xrotation
                          }
                        }
                      }
                    }
                  }
                }
              }
            }
          }
          JOINT RightShoulder
          {
            OFFSET -1.380118 23.180309 5.214158
            CHANNELS 3 Zrotation Yrotation Xrotation
            JOINT RightArm
            {
              OFFSET -15.037196 1.2e-05 -5.545604
              CHANNELS 3 Zrotation Yrotation Xrotation
              JOINT RightForeArm
              {
                OFFSET -28.736639 2e-06 -0.002597
                CHANNELS 3 Zrotation Yrotation Xrotation
                JOINT RightHand
                {
                  OFFSET -27.133619 -0.0 0.002613
                  CHANNELS 3 Zrotation Yrotation Xrotation
                  JOINT RightHandThumb1
                  {
                    OFFSET -2.274032 -1.383988 3.163127
                    CHANNELS 3 Zrotation Yrotation Xrotation
                    JOINT RightHandThumb2
                    {
                      OFFSET -4.011429 -1.827466 1.640914
                      CHANNELS 3 Zrotation Yrotation Xrotation
                      JOINT RightHandThumb3
                      {
                        OFFSET -2.794935 -4e-06 -3e-06
                        CHANNELS 3 Zrotation Yrotation Xrotation
                        JOINT RightHandThumbEnd
                        {
                          OFFSET -3.183852 4e-06 1e-06
                          CHANNELS 3 Zrotation Yrotation Xrotation
                        }
                      }
                    }
                  }
                  JOINT RightHandIndex1
                  {
                    OFFSET -3.253266 -0.520057 2.282866
                    CHANNELS 3 Zrotation Yrotation Xrotation
                    JOINT RightHandIndex2
                    {
                      OFFSET -6.341917 0.012471 0.178266
                      CHANNELS 3 Zrotation Yrotation Xrotation
                      JOINT RightHandIndex3
                      {
                        OFFSET -3.654871 -8e-06 -0.0
                        CHANNELS 3 Zrotation Yrotation Xrotation
                        JOINT RightHandIndex4
                        {
                          OFFSET -2.327586 0.0 1e-06
                          CHANNELS 3 Zrotation Yrotation Xrotation
                          JOINT RightHandIndexEnd
                          {
                            OFFSET -2.76179 -0.180656 -0.113078
                            CHANNELS 3 Zrotation Yrotation Xrotation
                          }
                        }
                      }
                    }
                  }
                  JOINT RightHandMiddle1
                  {
                    OFFSET -3.168106 0.246593 1.00103
                    CHANNELS 3 Zrotation Yrotation Xrotation
                    JOINT RightHandMiddle2
                    {
                      OFFSET -6.180828 -0.258836 -1.000895
                      CHANNELS 3 Zrotation Yrotation Xrotation
                      JOINT RightHandMiddle3
                      {
                        OFFSET -4.348901 0.0 -0.0
                        CHANNELS 3 Zrotation Yrotation Xrotation
                        JOINT RightHandMiddle4
                        {
                          OFFSET -3.00024 -4e-06 -2e-06
                          CHANNELS 3 Zrotation Yrotation Xrotation
                          JOINT RightHandMiddleEnd
                          {
                            OFFSET -2.30252 -0.29437 -0.031706
                            CHANNELS 3 Zrotation Yrotation Xrotation
                          }
                        }
                      }
                    }
                  }
                  JOINT RightHandRing1
                  {
                    OFFSET -2.88569 -0.067952 -0.308858
                    CHANNELS 3 Zrotation Yrotation Xrotation
                    JOINT RightHandRing2
                    {
                      OFFSET -5.854198 -0.48613 -1.373731
                      CHANNELS 3 Zrotation Yrotation Xrotation
                      JOINT RightHandRing3
                      {
                        OFFSET -4.33881 -4e-06 -0.0
                        CHANNELS 3 Zrotation Yrotation Xrotation
                        JOINT RightHandRing4
                        {
                          OFFSET -2.654903 -4e-06 4e-06
                          CHANNELS 3 Zrotation Yrotation Xrotation
                          JOINT RightHandRingEnd
                          {
                            OFFSET -1.933568 0.077527 -5.2e-05
                            CHANNELS 3 Zrotation Yrotation Xrotation
                          }
                        }
                      }
                    }
                  }
                  JOINT RightHandPinky1
                  {
                    OFFSET -2.866425 -0.342796 -1.584145
                    CHANNELS 3 Zrotation Yrotation Xrotation
                    JOINT RightHandPinky2
                    {
                      OFFSET -5.091371 -1.332055 -1.772385
                      CHANNELS 3 Zrotation Yrotation Xrotation
                      JOINT RightHandPinky3
                      {
                        OFFSET -3.062664 -4e-06 1e-06
                        CHANNELS 3 Zrotation Yrotation Xrotation
                        JOINT RightHandPinky4
                        {
                          OFFSET -1.546529 4e-06 -2e-06
                          CHANNELS 3 Zrotation Yrotation Xrotation
                          JOINT RightHandPinkyEnd
                          {
                            OFFSET -1.945119 -0.157718 0.057211
                            CHANNELS 3 Zrotation Yrotation Xrotation
                          }
                        }
                      }
                    }
                  }
                }
              }
            }
          }
        }
      }
    }
    JOINT LeftLeg
    {
      OFFSET 10.043214 -8.434526 2.595655
      CHANNELS 3 Zrotation Yrotation Xrotation
      JOINT LeftShin
      {
        OFFSET -1e-06 -43.221752 -0.802913
        CHANNELS 3 Zrotation Yrotation Xrotation
        JOINT LeftFoot
        {
          OFFSET 1e-06 -42.155094 -3.481523
          CHANNELS 3 Zrotation Yrotation Xrotation
          JOINT LeftToeBase
          {
            OFFSET 0.0 -5.059472 13.231529
            CHANNELS 3 Zrotation Yrotation Xrotation
            JOINT LeftToeEnd
            {
              OFFSET -0.009607 -1.647619 6.513017
              CHANNELS 3 Zrotation Yrotation Xrotation
            }
          }
        }
      }
    }
    JOINT RightLeg
    {
      OFFSET -10.047278 -8.29526 2.620317
      CHANNELS 3 Zrotation Yrotation Xrotation
      JOINT RightShin
      {
        OFFSET 1e-06 -43.362206 -0.805556
        CHANNELS 3 Zrotation Yrotation Xrotation
        JOINT RightFoot
        {
          OFFSET 2e-06 -42.117393 -3.478398
          CHANNELS 3 Zrotation Yrotation Xrotation
          JOINT RightToeBase
          {
            OFFSET -0.0 -5.079609 13.284196
            CHANNELS 3 Zrotation Yrotation Xrotation
            JOINT RightToeEnd
            {
              OFFSET 0.009532 -1.634378 6.460591
              CHANNELS 3 Zrotation Yrotation Xrotation
            }
          }
        }
      }
    }
  }
}
MOTION
Frames: 4
Frame Time: 0.03333333333333333
0.0 0.0 0.0 0.0 -0.0 0.0 -1.520242 99.216934 0.890468 0.030952 2.079892 -1.417231 -0.091625 -0.06898 1.904401 -0.634299 0.147122 -4.180234 -0.735105 -2.247701 4.678998 -0.702334 3.318599 7.632874 -0.668395 0.009639 -3.595674 1.549594 -1.58771 -11.700229 7.7e-05 -2.2e-05 6e-06 0.016197 0.026193 0.066809 0.657945 -3.723505 -10.528519 -0.629089 3.779219 -10.543298 -5.174897 -7.476976 11.465343 -73.25029 -5.013955 10.271472 0.169915 -27.221104 -0.101716 -3.020263 2.097427 -5.702459 -5.882108 9.861286 0.702591 -10.936875 -0.360575 7.156207 0.0 8.774828 0.0 -16.049471 17.689281 6.047412 -1.844033 2.498505 -2.507279 -10.163604 4.678946 4.621109 -20.97603 -3e-06 3e-06 -21.226294 2.451698 -3.594002 -1e-06 -6e-06 1e-06 -1.362681 2.240799 -0.746323 -21.334919 0.584909 3.008326 -13.821217 -2e-06 1e-06 -23.887175 -0.24908 -0.839483 -60.543797 2.680136 -1.186705 -0.294025 1.679688 0.833255 -14.218214 0.093213 1.300581 -34.212063 -0.287566 0.967171 -20.033218 0.964536 1.212844 -0.0 -0.0 -2e-06 -3.440389 0.788233 0.501654 -15.928189 -3.16731 2.999709 -6.338829 -2e-06 0.0 -18.123453 3.648185 -4.905671 -1e-06 1e-06 -2e-06 8.818687 10.429969 12.878246 70.536461 6.815656 15.578136 0.315636 24.739016 0.116745 -1.740586 2.304803 -2.287599 2.243543 -5.25504 -3.180158 14.282898 -0.826594 6.952506 -3e-06 -12.690609 -1e-06 16.207336 -17.508545 2.626889 1.665668 -1.955923 -2.8783 4.727801 -4.170589 4.993927 11.020535 3e-06 0.0 12.109059 -3.735717 -2.866783 0.0 -0.0 -0.0 1.291987 -1.928552 -1.498091 14.800139 0.567469 3.865611 14.242584 -1.341736 -6.660662 19.631985 0.143928 -0.648246 49.612576 -0.478397 -6.384521 0.353028 -1.51115 -0.031941 20.222803 3.684311 2.316631 18.787287 7e-06 -1e-06 10.751633 -0.479866 1.397905 -1e-06 1e-06 -1e-06 3.273809 0.305948 -0.580112 21.486828 11.830382 2.266132 8.162933 3e-06 0.0 18.399096 -3.798983 -4.940575 4e-06 -1e-06 1e-06 2.956939 10.73525 1.036331 -0.048331 -0.103228 12.135453 -5.900676 5.939402 -11.616742 1.671166 -2.032449 -1.946575 -0.0 -1e-06 2e-06 -0.762649 -3.175405 -1.906615 -0.067877 0.036507 14.910491 3.310261 -7.157069 -11.816026 -1.422948 0.983209 -1.130931 0.0 0.0 -1e-06 
0.0 0.0 0.0 0.0 -0.0 0.0 -1.489157 99.219559 0.897734 0.045615 2.099022 -1.383635 -0.058511 -0.055647 1.900164 -0.62618 0.160329 -4.168068 -0.762242 -2.243562 4.548036 -0.858086 3.388738 7.619479 -0.656303 -0.029312 -3.604757 1.589952 -1.626985 -11.345086 7.7e-05 -2.2e-05 6e-06 0.015785 0.028312 0.069279 0.660307 -3.721246 -10.529538 -0.632402 3.781199 -10.542854 -4.913664 -7.538974 11.459556 -73.665962 -4.944532 10.145665 0.113201 -27.14633 -0.076763 -3.035056 2.092695 -5.645656 -5.882108 9.861285 0.70259 -10.936873 -0.360574 7.156207 0.0 8.774823 0.0 -16.04995 17.69079 6.062666 -1.844033 2.498506 -2.507279 -10.163603 4.678946 4.621109 -20.976027 -2e-06 2e-06 -21.226288 2.451698 -3.594 0.0 -6e-06 1e-06 -1.362682 2.240798 -0.746322 -21.334917 0.584912 3.008324 -13.821217 -2e-06 2e-06 -23.887171 -0.249077 -0.839483 -60.510292 2.676486 -1.1581 -0.294025 1.679688 0.833256 -14.218211 0.093216 1.300581 -34.212051 -0.287563 0.967169 -20.033218 0.964537 1.212844 0.0 -0.0 -2e-06 -3.440389 0.788233 0.501655 -15.928189 -3.167307 2.999707 -6.338829 -1e-06 1e-06 -18.123446 3.648183 -4.905671 -1e-06 1e-06 -1e-06 8.349234 10.524426 12.793636 70.964249 6.573055 15.63016 0.323203 24.700537 0.119881 -1.78559 2.247949 -2.383892 2.243541 -5.255036 -3.180159 14.282893 -0.826595 6.952507 -3e-06 -12.690605 0.0 16.205915 -17.512859 2.637741 1.665666 -1.955921 -2.878301 4.727799 -4.170587 4.993925 11.020527 4e-06 1e-06 12.109053 -3.735715 -2.866783 -1e-06 -0.0 -1e-06 1.291985 -1.928549 -1.49809 14.800131 0.567467 3.865612 14.242573 -1.341735 -6.660658 19.631969 0.143926 -0.648242 49.611481 -0.470183 -6.375595 0.35303 -1.51115 -0.031939 20.222794 3.68431 2.316631 18.787273 5e-06 2e-06 10.751629 -0.47987 1.397905 -1e-06 1e-06 -0.0 3.273807 0.305947 -0.58011 21.486816 11.830376 2.266134 8.16293 3e-06 0.0 18.399088 -3.798986 -4.940575 3e-06 -0.0 -0.0 2.926215 10.790662 1.017777 -0.048238 -0.098544 12.106947 -5.873177 5.91364 -11.600382 1.670299 -2.049752 -1.967405 0.0 -0.0 2e-06 -0.783442 -3.117771 -1.93498 -0.06972 0.034591 14.914837 3.291074 -7.224976 -11.821206 -1.426117 0.978587 -1.139806 0.0 0.0 -1e-06 
0.0 0.0 0.0 0.0 -0.0 0.0 -1.444749 99.215546 0.91561 0.058293 2.113605 -1.379061 -0.017741 -0.040583 1.893392 -0.61668 0.172503 -4.157764 -0.782183 -2.238438 4.445019 -1.019398 3.45872 7.644082 -0.644428 -0.073498 -3.603114 1.629835 -1.636918 -11.048357 7.7e-05 -2.2e-05 6e-06 0.014659 0.02918 0.072384 0.661319 -3.719682 -10.528313 -0.635792 3.781752 -10.540563 -4.68793 -7.599174 11.442509 -74.029305 -4.859396 10.094617 0.072495 -27.054813 -0.059987 -3.070964 2.060921 -5.701972 -5.882107 9.86129 0.702588 -10.936871 -0.360575 7.156205 -1e-06 8.774828 -1e-06 -16.061193 17.696184 6.063662 -1.844032 2.498505 -2.507277 -10.163599 4.678947 4.621108 -20.976025 -2e-06 1e-06 -21.22629 2.451699 -3.594004 -1e-06 -6e-06 1e-06 -1.362681 2.240798 -0.746323 -21.334911 0.584911 3.008321 -13.821213 -2e-06 0.0 -23.887167 -0.24908 -0.839486 -60.472576 2.668883 -1.143678 -0.294025 1.679689 0.833255 -14.218208 0.093216 1.30058 -34.212051 -0.287565 0.967166 -20.033213 0.964535 1.212842 -0.0 -1e-06 -3e-06 -3.440389 0.788234 0.501655 -15.928187 -3.16731 2.999706 -6.338827 1e-06 -0.0 -18.123446 3.648187 -4.905676 -1e-06 1e-06 -2e-06 7.929263 10.614985 12.739347 71.297897 6.382263 15.64638 0.363124 24.68568 0.127537 -1.782316 2.230593 -2.409805 2.243543 -5.255037 -3.180155 14.282887 -0.826596 6.952497 0.0 -12.690603 -2e-06 16.199833 -17.517752 2.650044 1.665666 -1.955922 -2.878298 4.727798 -4.170588 4.993921 11.020522 1e-06 -4e-06 12.10905 -3.735718 -2.866784 -1e-06 -0.0 0.0 1.291986 -1.928552 -1.498088 14.800122 0.567466 3.865603 14.242568 -1.34174 -6.660659 19.631958 0.143924 -0.648249 49.611473 -0.477222 -6.360929 0.35303 -1.511151 -0.031941 20.222784 3.684308 2.316625 18.78727 4e-06 -5e-06 10.751624 -0.47987 1.397905 -2e-06 1e-06 -0.0 3.273805 0.305947 -0.58011 21.486801 11.830371 2.266129 8.162923 2e-06 -1e-06 18.399076 -3.798984 -4.940578 4e-06 -1e-06 -1e-06 2.890296 10.843169 1.019616 -0.048288 -0.095358 12.111383 -5.825733 5.904559 -11.614942 1.670065 -2.073317 -1.986785 0.0 -0.0 2e-06 -0.807789 -3.037133 -1.941268 -0.072069 0.023869 14.944012 3.278201 -7.309428 -11.848272 -1.428314 0.967836 -1.140864 -0.0 -0.0 -1e-06 
0.0 0.0 0.0 0.0 -0.0 0.0 -1.387858 99.198837 0.939011 0.07205 2.123405 -1.390942 0.019771 -0.027983 1.88245 -0.605588 0.174346 -4.153901 -0.787661 -2.223742 4.364065 -1.167564 3.507404 7.70108 -0.63231 -0.095815 -3.596758 1.652153 -1.626835 -10.794204 7.7e-05 -2.2e-05 6e-06 0.013658 0.029507 0.074248 0.660824 -3.718632 -10.528355 -0.637333 3.781827 -10.539421 -4.483587 -7.673764 11.408945 -74.364853 -4.761264 10.090755 0.057117 -26.926558 -0.050562 -3.115852 2.025487 -5.841654 -5.882109 9.861293 0.70259 -10.936875 -0.360576 7.156207 -1e-06 8.774831 -2e-06 -16.069677 17.705688 6.059295 -1.844033 2.498505 -2.507278 -10.163604 4.678946 4.621109 -20.976034 -4e-06 2e-06 -21.226295 2.451698 -3.594003 -1e-06 -6e-06 1e-06 -1.362682 2.240799 -0.746324 -21.334925 0.584909 3.008323 -13.82122 -2e-06 1e-06 -23.887182 -0.249079 -0.839485 -60.447388 2.658559 -1.144957 -0.294024 1.679688 0.833256 -14.218215 0.093215 1.30058 -34.212059 -0.287566 0.967167 -20.033222 0.964536 1.212843 -0.0 0.0 -1e-06 -3.44039 0.788235 0.501654 -15.928192 -3.167312 2.999707 -6.33883 -1e-06 2e-06 -18.123457 3.648185 -4.905675 -2e-06 0.0 -2e-06 7.559649 10.694 12.703444 71.546501 6.236652 15.653481 0.440334 24.694799 0.142474 -1.754594 2.250479 -2.380867 2.243544 -5.255042 -3.180161 14.282903 -0.826596 6.952508 -2e-06 -12.690616 0.0 16.183926 -17.516106 2.659349 1.665668 -1.955924 -2.878301 4.727803 -4.170592 4.993927 11.020535 2e-06 0.0 12.10906 -3.73572 -2.866788 -1e-06 -0.0 -1e-06 1.291986 -1.928552 -1.498088 14.800139 0.567467 3.865611 14.242583 -1.341739 -6.660664 19.631983 0.143925 -0.648246 49.600975 -0.483498 -6.342921 0.353029 -1.511152 -0.031941 20.222805 3.684312 2.316633 18.787289 2e-06 1e-06 10.751637 -0.47987 1.397909 -1e-06 1e-06 1e-06 3.273809 0.305948 -0.58011 21.486832 11.830384 2.266135 8.162932 3e-06 1e-06 18.399099 -3.798988 -4.940579 4e-06 1e-06 0.0 2.845002 10.868411 0.996249 -0.049643 -0.094166 12.217347 -5.779418 5.921112 -11.692964 1.669984 -2.097792 -1.997455 0.0 1e-06 2e-06 -0.844034 -2.978225 -1.968821 -0.070381 0.011522 15.063422 3.293365 -7.360585 -11.928644 -1.430034 0.956461 -1.139397 0.0 0.0 -1e-06 
